<svg xmlns="http://www.w3.org/2000/svg" xmlns:xlink="http://www.w3.org/1999/xlink" width="500" zoomAndPan="magnify" viewBox="0 0 375 374.999991" height="500" preserveAspectRatio="xMidYMid meet" version="1.0"><defs><g/><clipPath id="46ec7fa257"><path d="M 165 116.300781 L 221 116.300781 L 221 198 L 165 198 Z M 165 116.300781 " clip-rule="nonzero"/></clipPath><clipPath id="e07ae99e12"><path d="M 139.886719 146 L 148 146 L 148 168 L 139.886719 168 Z M 139.886719 146 " clip-rule="nonzero"/></clipPath><clipPath id="c31aa8ab3b"><path d="M 227 146 L 235.128906 146 L 235.128906 168 L 227 168 Z M 227 146 " clip-rule="nonzero"/></clipPath></defs><g fill="#ffffff" fill-opacity="1"><g transform="translate(127.498158, 243.250604)"><g><path d="M 7.707031 0 L 12.570312 0 L 12.570312 -16.851562 L 19.359375 -16.851562 L 19.359375 -21.410156 L 0.917969 -21.410156 L 0.917969 -16.851562 L 7.707031 -16.851562 Z M 7.707031 0 "/></g></g></g><g fill="#ffffff" fill-opacity="1"><g transform="translate(146.85107, 243.250604)"><g><path d="M 2.570312 0 L 7.402344 0 L 7.402344 -12.90625 L 12.601562 -5.292969 L 15.964844 -5.292969 L 21.164062 -12.875 L 21.164062 0 L 25.996094 0 L 25.996094 -21.410156 L 21.898438 -21.410156 L 14.3125 -10.308594 L 6.699219 -21.410156 L 2.570312 -21.410156 Z M 2.570312 0 "/></g></g></g><g fill="#ffffff" fill-opacity="1"><g transform="translate(174.489569, 243.250604)"><g><path d="M 12.722656 0.429688 C 19.421875 0.429688 24.164062 -4.160156 24.164062 -10.703125 C 24.164062 -17.25 19.421875 -21.835938 12.722656 -21.835938 C 6.023438 -21.835938 1.316406 -17.25 1.316406 -10.703125 C 1.316406 -4.160156 6.023438 0.429688 12.722656 0.429688 Z M 6.269531 -10.703125 C 6.269531 -14.558594 8.929688 -17.21875 12.722656 -17.21875 C 16.546875 -17.21875 19.175781 -14.558594 19.175781 -10.703125 C 19.175781 -6.851562 16.546875 -4.191406 12.722656 -4.191406 C 8.929688 -4.191406 6.269531 -6.851562 6.269531 -10.703125 Z M 6.269531 -10.703125 "/></g></g></g><g fill="#ffffff" fill-opacity="1"><g transform="translate(199.040091, 243.250604)"><g><path d="M 8.503906 0 L 13.273438 0 L 21.5 -21.410156 L 16.300781 -21.410156 L 10.917969 -7.003906 L 8.351562 -13.792969 L 5.503906 -21.410156 L 0.273438 -21.410156 Z M 8.503906 0 "/></g></g></g><g fill="#ffffff" fill-opacity="1"><g transform="translate(219.891139, 243.250604)"><g><path d="M 2.570312 0 L 7.433594 0 L 7.433594 -21.410156 L 2.570312 -21.410156 Z M 2.570312 0 "/></g></g></g><g fill="#ffffff" fill-opacity="1"><g transform="translate(228.971138, 243.250604)"><g><path d="M 2.570312 0 L 16.976562 0 L 16.976562 -4.128906 L 7.402344 -4.128906 L 7.402344 -8.808594 L 15.8125 -8.808594 L 15.8125 -12.875 L 7.402344 -12.875 L 7.402344 -17.3125 L 16.636719 -17.3125 L 16.636719 -21.410156 L 2.570312 -21.410156 Z M 2.570312 0 "/></g></g></g><g clip-path="url(#46ec7fa257)"><path fill="#13bdca" d="M 165.125 173.886719 L 165.125 140.417969 C 165.125 137.050781 166.570312 133.957031 169.066406 131.835938 L 169.066406 120.003906 C 169.066406 117.976562 170.726562 116.316406 172.753906 116.316406 C 174.78125 116.316406 176.441406 117.976562 176.441406 120.003906 L 176.441406 129.097656 C 178.382812 129.097656 180.324219 129.609375 182.085938 130.625 L 183.808594 131.621094 L 183.808594 127.648438 C 183.808594 125.621094 185.46875 123.960938 187.496094 123.960938 C 189.523438 123.960938 191.183594 125.621094 191.183594 127.648438 L 191.183594 135.878906 L 198.554688 140.132812 L 198.554688 120.003906 C 198.554688 117.976562 200.210938 116.316406 202.242188 116.316406 C 204.269531 116.316406 205.929688 117.976562 205.929688 120.003906 L 205.929688 144.390625 L 211.070312 147.359375 C 211.890625 147.835938 212.636719 148.398438 213.296875 149.035156 L 213.296875 133.222656 C 213.296875 131.195312 214.953125 129.535156 216.984375 129.535156 C 219.011719 129.535156 220.671875 131.195312 220.671875 133.222656 L 220.671875 181.082031 C 220.671875 183.109375 219.011719 184.769531 216.984375 184.769531 C 214.953125 184.769531 213.296875 183.109375 213.296875 181.082031 L 213.296875 165.273438 C 212.636719 165.90625 211.890625 166.46875 211.070312 166.945312 L 205.929688 169.914062 L 205.929688 194.300781 C 205.929688 196.328125 204.269531 197.988281 202.242188 197.988281 C 200.210938 197.988281 198.554688 196.328125 198.554688 194.300781 L 198.554688 174.171875 L 191.183594 178.425781 L 191.183594 186.65625 C 191.183594 188.6875 189.527344 190.34375 187.496094 190.34375 C 185.46875 190.34375 183.808594 188.6875 183.808594 186.65625 L 183.808594 182.683594 L 182.085938 183.679688 C 180.324219 184.699219 178.382812 185.207031 176.441406 185.207031 L 176.441406 194.300781 C 176.441406 196.328125 174.78125 197.988281 172.753906 197.988281 C 170.726562 197.988281 169.066406 196.328125 169.066406 194.300781 L 169.066406 182.472656 C 166.570312 180.347656 165.125 177.253906 165.125 173.886719 Z M 165.125 173.886719 " fill-opacity="1" fill-rule="nonzero"/></g><path fill="#ffffff" d="M 172.492188 173.886719 L 172.492188 140.417969 C 172.492188 138.972656 173.210938 137.730469 174.460938 137.007812 L 174.492188 136.992188 L 174.523438 136.972656 L 174.582031 136.941406 L 174.613281 136.925781 L 174.640625 136.910156 L 174.671875 136.894531 L 174.699219 136.878906 L 174.730469 136.867188 L 174.757812 136.851562 L 174.761719 136.851562 L 174.789062 136.835938 L 174.820312 136.824219 L 174.851562 136.808594 L 174.878906 136.796875 L 174.882812 136.796875 L 174.910156 136.78125 L 174.9375 136.769531 L 174.941406 136.769531 L 174.972656 136.757812 L 175 136.746094 L 175.003906 136.746094 L 175.035156 136.734375 L 175.0625 136.722656 L 175.09375 136.710938 L 175.121094 136.699219 L 175.125 136.699219 L 175.15625 136.6875 L 175.183594 136.679688 L 175.1875 136.675781 L 175.21875 136.667969 L 175.246094 136.65625 L 175.25 136.65625 L 175.28125 136.644531 L 175.308594 136.636719 L 175.3125 136.636719 L 175.34375 136.625 L 175.371094 136.617188 L 175.375 136.617188 L 175.40625 136.609375 L 175.433594 136.601562 L 175.4375 136.601562 L 175.492188 136.585938 L 175.5 136.582031 L 175.527344 136.574219 L 175.554688 136.570312 L 175.558594 136.570312 L 175.589844 136.5625 L 175.617188 136.554688 L 175.621094 136.554688 L 175.652344 136.546875 L 175.679688 136.542969 L 175.683594 136.542969 L 175.714844 136.535156 L 175.742188 136.53125 L 175.746094 136.527344 L 175.777344 136.523438 L 175.804688 136.519531 L 175.808594 136.519531 L 175.84375 136.511719 L 175.867188 136.507812 L 175.875 136.507812 L 175.90625 136.503906 L 175.929688 136.5 L 175.9375 136.5 L 175.96875 136.496094 L 175.992188 136.492188 L 176 136.492188 L 176.03125 136.488281 L 176.054688 136.484375 L 176.0625 136.484375 L 176.09375 136.480469 L 176.117188 136.480469 L 176.125 136.476562 L 176.15625 136.476562 L 176.179688 136.472656 L 176.21875 136.472656 L 176.242188 136.46875 L 176.316406 136.46875 L 176.347656 136.464844 L 176.441406 136.464844 C 177.109375 136.46875 177.777344 136.648438 178.402344 137.007812 L 183.808594 140.128906 L 191.1875 144.390625 L 198.554688 148.640625 L 205.929688 152.902344 L 207.386719 153.742188 C 208.636719 154.464844 209.355469 155.707031 209.355469 157.152344 C 209.355469 158.601562 208.636719 159.84375 207.386719 160.566406 L 205.929688 161.40625 L 198.554688 165.664062 L 191.1875 169.917969 L 183.808594 174.175781 L 178.402344 177.296875 C 177.777344 177.652344 177.109375 177.835938 176.441406 177.839844 L 176.285156 177.839844 L 176.25 177.835938 L 176.21875 177.835938 L 176.1875 177.832031 L 176.15625 177.832031 L 176.125 177.828125 L 176.117188 177.828125 L 176.09375 177.824219 L 176.0625 177.824219 L 176.054688 177.820312 L 176.03125 177.820312 L 176 177.816406 L 175.992188 177.8125 L 175.96875 177.8125 L 175.9375 177.808594 L 175.929688 177.804688 L 175.90625 177.800781 L 175.875 177.796875 L 175.867188 177.796875 L 175.84375 177.792969 L 175.808594 177.789062 L 175.804688 177.785156 L 175.777344 177.78125 L 175.746094 177.777344 L 175.742188 177.777344 L 175.714844 177.769531 L 175.683594 177.765625 L 175.679688 177.761719 L 175.652344 177.757812 L 175.621094 177.75 L 175.617188 177.75 L 175.589844 177.746094 L 175.558594 177.738281 L 175.554688 177.738281 L 175.527344 177.730469 L 175.496094 177.722656 L 175.492188 177.71875 L 175.464844 177.714844 L 175.4375 177.707031 L 175.429688 177.703125 L 175.40625 177.699219 L 175.375 177.6875 L 175.367188 177.6875 L 175.34375 177.679688 L 175.3125 177.667969 L 175.308594 177.667969 L 175.28125 177.660156 L 175.25 177.648438 L 175.246094 177.648438 L 175.21875 177.640625 L 175.1875 177.628906 L 175.183594 177.628906 L 175.15625 177.617188 L 175.125 177.605469 L 175.121094 177.605469 L 175.09375 177.597656 L 175.0625 177.585938 L 175.0625 177.582031 L 175.035156 177.570312 L 175.003906 177.558594 L 175 177.558594 L 174.972656 177.546875 L 174.941406 177.535156 L 174.9375 177.535156 L 174.910156 177.523438 L 174.882812 177.507812 L 174.878906 177.507812 L 174.851562 177.496094 L 174.820312 177.484375 L 174.820312 177.480469 L 174.789062 177.46875 L 174.761719 177.457031 L 174.757812 177.453125 L 174.730469 177.441406 L 174.699219 177.425781 L 174.671875 177.410156 L 174.609375 177.378906 L 174.582031 177.363281 L 174.523438 177.332031 L 174.492188 177.3125 L 174.460938 177.296875 C 173.210938 176.574219 172.492188 175.332031 172.492188 173.886719 " fill-opacity="1" fill-rule="nonzero"/><g clip-path="url(#e07ae99e12)"><path fill="#13bdca" d="M 143.488281 146.585938 C 145.476562 146.585938 147.101562 148.207031 147.101562 150.195312 L 147.101562 164.109375 C 147.101562 166.097656 145.476562 167.722656 143.488281 167.722656 C 141.503906 167.722656 139.878906 166.097656 139.878906 164.109375 L 139.878906 150.195312 C 139.878906 148.207031 141.503906 146.585938 143.488281 146.585938 Z M 143.488281 146.585938 " fill-opacity="1" fill-rule="nonzero"/></g><g clip-path="url(#c31aa8ab3b)"><path fill="#13bdca" d="M 231.503906 146.585938 C 229.519531 146.585938 227.894531 148.207031 227.894531 150.195312 L 227.894531 164.109375 C 227.894531 166.097656 229.519531 167.722656 231.503906 167.722656 C 233.492188 167.722656 235.117188 166.097656 235.117188 164.109375 L 235.117188 150.195312 C 235.117188 148.207031 233.492188 146.585938 231.503906 146.585938 Z M 231.503906 146.585938 " fill-opacity="1" fill-rule="nonzero"/></g><path fill="#13bdca" d="M 158.007812 129.535156 L 158.011719 129.535156 C 160.039062 129.535156 161.699219 131.195312 161.699219 133.222656 L 161.699219 181.082031 C 161.699219 183.109375 160.039062 184.769531 158.011719 184.769531 L 158.007812 184.769531 C 155.980469 184.769531 154.324219 183.109375 154.324219 181.082031 L 154.324219 133.222656 C 154.324219 131.195312 155.980469 129.535156 158.007812 129.535156 Z M 158.007812 129.535156 " fill-opacity="1" fill-rule="nonzero"/></svg>